<svg xmlns="http://www.w3.org/2000/svg" viewBox="0 0 32 32">
  <path fill="#0ACF83" d="M11.5 2A4.5 4.5 0 0 0 7 6.5v19A4.5 4.5 0 0 0 11.5 30a4.5 4.5 0 0 0 4.5-4.5v-4.5h4.5a4.5 4.5 0 0 0 4.5-4.5 4.5 4.5 0 0 0-4.5-4.5H16V6.5A4.5 4.5 0 0 0 11.5 2z"/>
  <path fill="#A259FF" d="M16 2h4.5A4.5 4.5 0 0 1 25 6.5 4.5 4.5 0 0 1 20.5 11H16V2z"/>
  <path fill="#F24E1E" d="M16 11h4.5a4.5 4.5 0 0 1 4.5 4.5 4.5 4.5 0 0 1-4.5 4.5H16v-9z"/>
  <path fill="#FF7262" d="M16 20h4.5a4.5 4.5 0 0 1 0 9H16v-9z"/>
  <path fill="#1ABCFE" d="M20.5 11.5a4.5 4.5 0 1 1 0 9 4.5 4.5 0 0 1 0-9z"/>
</svg>
