<svg xmlns="http://www.w3.org/2000/svg" viewBox="0 0 32 32">
  <defs>
    <linearGradient id="supabase-gradient" x1="0%" y1="0%" x2="100%" y2="100%">
      <stop offset="0%" style="stop-color:#3ECF8E;stop-opacity:1" />
      <stop offset="100%" style="stop-color:#3ECF8E;stop-opacity:0.8" />
    </linearGradient>
  </defs>
  <path fill="url(#supabase-gradient)" d="M18.5 2.5c-.5-.5-1.3-.6-1.9-.2L3.4 11.8c-.9.6-.9 2 0 2.6l13.2 9.5c.6.4 1.4.3 1.9-.2l.5-.5V2.5h-.5z"/>
  <path fill="#3ECF8E" opacity="0.7" d="M13.5 29.5c.5.5 1.3.6 1.9.2l13.2-9.5c.9-.6.9-2 0-2.6l-13.2-9.5c-.6-.4-1.4-.3-1.9.2l-.5.5v20.7h.5z"/>
</svg>
