<svg xmlns="http://www.w3.org/2000/svg" width="128" height="128" viewBox="0 0 128 128"><title>Vitest SVG Icon</title><path fill="currentColor" d="M39.16 82.4L10.54 53.781a6.196 6.196 0 0 0-8.762 8.762l57.828 57.826a6.18 6.18 0 0 0 4.38 1.815h.026a6.18 6.18 0 0 0 4.38-1.815l57.828-57.826a6.2 6.2 0 0 0 1.78-4.37a6.198 6.198 0 0 0-10.542-4.392L88.843 82.398a6 6 0 0 0-.322.298L64 107.214L39.478 82.696a6 6 0 0 0-.32-.297Zm56.898-41.58l-30.6 44.244a2.635 2.635 0 0 1-4.339-.007a2.6 2.6 0 0 1-.451-1.601l1.225-24.428l-19.772-4.192a2.63 2.63 0 0 1-1.891-1.59a2.6 2.6 0 0 1 .278-2.451l30.6-44.244a2.63 2.63 0 0 1 3.009-.998a2.62 2.62 0 0 1 1.33 1.005c.322.47.48 1.032.451 1.601l-1.224 24.428l19.77 4.192c.423.09.817.282 1.147.56a2.605 2.605 0 0 1 .467 3.48z"/></svg>