<svg xmlns="http://www.w3.org/2000/svg" viewBox="0 0 32 32">
  <path fill="#99425B" d="M27.805 7.708l-5.675 10.367c-.458 1.008-.766 1.778-1.103 2.504-.337.725-.702 1.407-1.145 2.057-.443.651-.964 1.27-1.604 1.818-.64.548-1.398 1.025-2.318 1.376-.92.351-2.002.576-3.333.576-1.33 0-2.413-.225-3.333-.576-.92-.351-1.678-.828-2.318-1.376-.64-.548-1.161-1.167-1.604-1.818-.443-.65-.808-1.332-1.145-2.057-.337-.726-.645-1.496-1.103-2.504L.444 7.708h5.305l3.888 7.106c.337.615.645 1.19.92 1.736.276.546.527 1.063.758 1.55.23.488.437.947.62 1.376.184.43.345.83.484 1.2.138-.37.299-.77.483-1.2.184-.429.39-.888.62-1.376.231-.487.482-1.004.758-1.55.275-.546.583-1.121.92-1.736l3.888-7.106h5.305l-5.675 10.367c-.458 1.008-.766 1.778-1.103 2.504-.337.725-.702 1.407-1.145 2.057-.443.651-.964 1.27-1.604 1.818-.64.548-1.398 1.025-2.318 1.376-.92.351-2.002.576-3.333.576v-4.8c.92 0 1.678-.151 2.272-.454.594-.302 1.084-.696 1.47-1.181.386-.486.668-1.063.846-1.731.178-.668.252-1.427.222-2.276l-5.675-10.367h5.305z"/>
  <circle fill="#99425B" cx="16" cy="28.5" r="2"/>
</svg>
