<svg xmlns="http://www.w3.org/2000/svg" viewBox="0 0 32 32">
  <path fill="#362D59" d="M16 2.667L2.667 16 16 29.333 29.333 16 16 2.667zm0 3.771l9.562 9.562L16 25.562 6.438 16 16 6.438z"/>
  <path fill="#362D59" d="M19.429 12.571c-.762-.762-1.905-1.143-3.429-1.143s-2.667.381-3.429 1.143c-.762.762-1.143 1.905-1.143 3.429s.381 2.667 1.143 3.429c.762.762 1.905 1.143 3.429 1.143s2.667-.381 3.429-1.143c.762-.762 1.143-1.905 1.143-3.429s-.381-2.667-1.143-3.429zm-1.715 5.143c-.381.381-.952.571-1.714.571s-1.333-.19-1.714-.571c-.381-.381-.571-.952-.571-1.714s.19-1.333.571-1.714c.381-.381.952-.571 1.714-.571s1.333.19 1.714.571c.381.381.571.952.571 1.714s-.19 1.333-.571 1.714z"/>
</svg>
