<?xml version="1.0" encoding="utf-8"?><!-- Uploaded to: SVG Repo, www.svgrepo.com, Generator: SVG Repo Mixer Tools -->
<svg version="1.1" id="Uploaded to svgrepo.com" xmlns="http://www.w3.org/2000/svg" xmlns:xlink="http://www.w3.org/1999/xlink" 
	 width="800px" height="800px" viewBox="0 0 32 32" xml:space="preserve">
<style type="text/css">
	.feather_een{fill:#0B1719;}
</style>
<path class="feather_een" d="M29,4H3C1.343,4,0,5.343,0,7v16c0,1.657,1.343,3,3,3h9v3h-1.5c-0.276,0-0.5,0.224-0.5,0.5l0,0
	c0,0.276,0.224,0.5,0.5,0.5h11c0.276,0,0.5-0.224,0.5-0.5l0,0c0-0.276-0.224-0.5-0.5-0.5H20v-3h9c1.657,0,3-1.343,3-3V7
	C32,5.343,30.657,4,29,4z M19,29h-6v-3h6V29z M31,23c0,1.105-0.895,2-2,2H3c-1.105,0-2-0.895-2-2V7c0-1.105,0.895-2,2-2h26
	c1.105,0,2,0.895,2,2V23z M25.805,9.03c-0.782-0.154-1.475,0.3-1.713,0.97H18V9h-4v1H7.908C7.67,9.33,6.976,8.876,6.195,9.03
	c-0.573,0.113-1.04,0.572-1.16,1.144C4.83,11.145,5.565,12,6.5,12c0.652,0,1.202-0.419,1.408-1H14v0.224
	c-4.388,0.897-7.745,4.658-7.986,9.246C5.999,20.757,6.227,21,6.515,21h0c0.263,0,0.484-0.204,0.497-0.467
	c0.209-4.065,3.134-7.41,6.988-8.289V13h4v-0.757c3.854,0.88,6.779,4.225,6.988,8.289C25.002,20.796,25.222,21,25.485,21h0
	c0.288,0,0.516-0.243,0.501-0.53c-0.241-4.588-3.598-8.349-7.986-9.246V11h6.092c0.207,0.581,0.756,1,1.408,1
	c0.935,0,1.67-0.855,1.466-1.826C26.845,9.602,26.378,9.143,25.805,9.03z M6.5,11C6.224,11,6,10.776,6,10.5S6.224,10,6.5,10
	S7,10.224,7,10.5S6.776,11,6.5,11z M17,12h-2v-2h2V12z M25.5,11c-0.276,0-0.5-0.224-0.5-0.5s0.224-0.5,0.5-0.5s0.5,0.224,0.5,0.5
	S25.776,11,25.5,11z"/>
</svg>